<?xml version="1.0" standalone="no"?>
<!DOCTYPE svg PUBLIC "-//W3C//DTD SVG 20010904//EN"
 "http://www.w3.org/TR/2001/REC-SVG-20010904/DTD/svg10.dtd">
<svg version="1.0" xmlns="http://www.w3.org/2000/svg"
 width="969.000000pt" height="1280.000000pt" viewBox="0 0 969.000000 1280.000000"
 preserveAspectRatio="xMidYMid meet">
<g transform="translate(0.000000,1280.000000) scale(0.100000,-0.100000)"
fill="#c0af9e" stroke="none">
<path d="M8673 12786 c-155 -49 -347 -246 -530 -543 -42 -69 -63 -92 -127
-138 -116 -83 -229 -181 -346 -300 -86 -87 -120 -114 -185 -147 -176 -89 -410
-236 -555 -348 -84 -65 -296 -224 -501 -376 -175 -130 -449 -355 -599 -494
-112 -102 -111 -92 5 105 77 132 135 255 135 288 0 30 13 47 47 64 38 17 93
93 93 126 0 10 34 53 76 95 330 332 499 714 440 992 -26 123 -76 211 -179 317
-50 50 -96 105 -103 122 -7 17 -18 31 -24 31 -25 0 -129 -79 -205 -155 -96
-95 -230 -271 -258 -338 -13 -30 -25 -46 -33 -43 -7 3 -22 -10 -33 -28 -39
-63 -176 -181 -326 -281 -107 -71 -177 -127 -245 -195 -131 -131 -187 -217
-449 -695 -109 -199 -211 -349 -313 -463 -234 -263 -240 -275 -313 -637 -56
-281 -124 -584 -270 -1210 -102 -435 -107 -482 -76 -688 56 -373 -7 -627 -248
-994 -43 -65 -858 -1142 -1811 -2393 -953 -1251 -1733 -2280 -1733 -2286 -1
-31 214 -362 358 -553 660 -876 1536 -1426 2539 -1596 82 -14 153 -22 158 -17
5 5 793 1214 1751 2688 l1742 2679 125 82 c239 157 406 272 535 369 400 299
730 622 982 964 39 53 93 113 119 135 336 270 589 601 1045 1370 293 494 283
475 284 560 0 59 -5 78 -30 124 -37 67 -150 173 -247 231 l-75 45 89 94 c48
52 111 124 139 160 65 86 145 249 160 329 24 127 -9 239 -97 328 -27 27 -64
70 -83 96 -42 59 -101 101 -182 129 -52 18 -87 22 -185 23 l-122 1 32 38 c163
199 262 359 316 512 45 126 53 263 20 366 -72 224 -269 362 -495 346 -44 -3
-99 -13 -122 -21 -24 -8 -43 -13 -43 -9 0 3 35 43 79 88 91 97 160 220 215
387 65 194 69 360 12 483 -69 149 -216 223 -353 181z m-404 -1837 c-69 -71
-124 -152 -149 -218 -17 -43 -19 -44 -96 -67 -80 -23 -176 -57 -249 -89 -36
-15 -26 -3 85 112 70 70 164 173 210 228 46 55 120 137 164 183 l81 83 8 -84
7 -84 -61 -64z"/>
</g>
</svg>
