<?xml version="1.0" encoding="utf-8"?>
<!-- Generator: Adobe Illustrator 15.1.0, SVG Export Plug-In . SVG Version: 6.00 Build 0)  -->
<!DOCTYPE svg PUBLIC "-//W3C//DTD SVG 1.1//EN" "http://www.w3.org/Graphics/SVG/1.1/DTD/svg11.dtd">
<svg version="1.1" id="Layer_1" xmlns="http://www.w3.org/2000/svg" xmlns:xlink="http://www.w3.org/1999/xlink" x="0px" y="0px"
	 width="612px" height="792px" viewBox="0 0 612 792" enable-background="new 0 0 612 792" xml:space="preserve">
<path fill-rule="evenodd" clip-rule="evenodd" stroke="#000000" stroke-width="2.9999" stroke-linecap="round" stroke-linejoin="round" stroke-miterlimit="22.9256" d="
	M281.93,755.976c-20.363-0.996-33.782-3.408-45.105-7.602s-20.549-10.169-28.255-16.932c-7.706-6.762-13.891-14.311-17.613-24.271
	c-3.722-9.96-4.98-22.331-4.403-33.496c0.576-11.166,2.987-21.126,5.032-28.569c2.044-7.443,3.721-12.371,7.338-20.862
	c3.616-8.492,9.173-20.549,13.314-30.194c4.141-9.646,6.867-16.879,8.492-23.693c1.625-6.815,2.15-13.21,1.468-19.344
	c-0.681-6.133-2.568-12.004-5.714-20.916c-3.146-8.911-7.55-20.862-10.8-31.294c-3.25-10.432-5.347-19.344-6.553-27.993
	c-1.206-8.649-1.521-17.036,0.262-25.476c1.782-8.44,5.662-16.932,10.746-22.122c5.085-5.189,11.375-7.076,15.569-6.919
	c4.193,0.157,6.29,2.358,7.181,5.87c0.891,3.513,0.577,8.335,1.258,14.206c0.681,5.871,2.358,12.791,4.875,18.452
	c2.516,5.662,5.871,10.065,10.117,12.948c4.246,2.884,9.383,4.246,14.258,3.774s9.488-2.778,12.633-5.557
	c3.145-2.778,4.823-6.028,5.661-10.327c0.839-4.298,0.839-9.645,0.892-18.818c0.052-9.174,0.157-22.174,0.786-65.316
	c0.628-43.142,1.781-116.425,2.462-153.906c0.681-37.48,0.89-39.158,0.025-40.966c-0.865-1.809-2.804-3.748-4.691-5.636
	c-1.887-1.887-3.722-3.721-4.639-5.976c-0.705-1.731-0.868-3.71-0.075-7.836h-3.648c-1.174,2.402-3.37,4.018-5.885,4.018
	c-3.751,0-6.792-3.594-6.792-8.027c0-4.434,3.041-8.028,6.792-8.028c2.515,0,4.711,1.616,5.885,4.017h5.602
	c0.929-3.398,2.129-7.532,3.579-12.486h-2.827c-1.174,2.401-3.37,4.018-5.886,4.018c-3.751,0-6.792-3.594-6.792-8.027
	s3.042-8.028,6.792-8.028c2.516,0,4.711,1.616,5.886,4.018h5.177c1.107-3.785,2.318-7.939,3.625-12.487h-2.449
	c-1.174,2.401-3.37,4.018-5.885,4.018c-3.751,0-6.792-3.594-6.792-8.028c0-4.433,3.041-8.027,6.792-8.027
	c2.515,0,4.711,1.616,5.885,4.017h4.741c1.149-4.037,2.343-8.248,3.549-12.486h-1.937c-1.174,2.402-3.37,4.018-5.885,4.018
	c-3.751,0-6.792-3.594-6.792-8.028s3.041-8.027,6.792-8.027c2.515,0,4.711,1.616,5.885,4.017h4.228
	c1.228-4.277,2.447-8.49,3.625-12.487h-1.5c-1.174,2.401-3.37,4.018-5.885,4.018c-3.751,0-6.792-3.594-6.792-8.028
	s3.042-8.027,6.792-8.027c2.516,0,4.711,1.616,5.885,4.017h3.901c0.862-2.828,1.686-5.46,2.453-7.824
	c0.548-1.687,1.067-3.236,1.565-4.663h-1.565c-1.174,2.402-3.37,4.018-5.885,4.018c-3.751,0-6.793-3.594-6.793-8.027
	s3.042-8.027,6.793-8.027c2.515,0,4.711,1.616,5.885,4.017h4.722c2.221-4.774,4.232-6.994,6.89-8.372
	c4.351-2.256,10.432-2.256,15.359-0.629c4.928,1.626,8.702,4.881,11.428,7.976s4.402,6.03,3.932,9.647
	c-0.473,3.617-3.093,7.916-5.662,13.944c-2.568,6.028-5.085,13.787-6.081,21.073c-0.995,7.287-0.472,14.101,0.63,21.388
	c1.101,7.286,2.778,15.044,3.774,20.392c0.996,5.347,1.31,8.282-0.001,11.585c-1.31,3.302-4.245,6.972-7.182,11.794
	c-2.935,4.823-5.87,10.799-7.496,15.779c-1.625,4.98-1.94,8.965-1.836,32.03s0.628,65.211,1.414,116.688
	c0.786,51.477,1.834,112.284,2.357,143.002c0.524,30.719,0.523,31.347,0.629,32.055c0.104,0.708,0.314,1.494,1.809,3.354
	c1.494,1.861,4.272,4.797,8.229,6.526c3.958,1.73,9.096,2.255,14.521,1.232c5.426-1.022,11.14-3.591,15.045-6.605
	c3.905-3.014,6.002-6.474,7.522-10.169c1.521-3.696,2.464-7.628,2.988-11.113c0.523-3.486,0.629-6.526,1.65-9.253
	c1.022-2.726,2.962-5.137,5.636-6.368c2.674-1.232,6.081-1.284,9.226,0.472c3.146,1.756,6.029,5.32,8.388,9.566
	c2.359,4.246,4.193,9.174,5.085,14.94c0.891,5.766,0.839,12.371-0.105,18.74c-0.943,6.369-2.778,12.502-5.426,19.369
	c-2.646,6.866-6.106,14.467-8.256,21.544c-2.149,7.076-2.988,13.628-3.066,19.368c-0.079,5.74,0.603,10.668,3.04,17.691
	c2.438,7.025,6.631,16.146,11.663,27.102s10.903,23.746,14.625,34.44c3.722,10.693,5.295,19.29,6.055,26.865
	c0.76,7.574,0.707,14.127-0.473,21.335s-3.485,15.07-6.579,21.833c-3.092,6.762-6.972,12.424-12.318,17.299
	s-12.161,8.964-20.706,12.659c-8.545,3.696-18.819,6.998-37.61,8.859C329.599,756.552,302.293,756.972,281.93,755.976z"/>
</svg>
