<svg version="1.1" xmlns="http://www.w3.org/2000/svg" x="0" y="0" viewBox="0 0 257.5 237.6" xml:space="preserve"><style>.st0{fill:#b73f34}.st1{fill:#c15a51}.st2{fill:#ca7169}.st3{fill:#bd4f45}.st4{fill:#f2dcda}.st5{fill:#be5349}.st6{fill:#fefdfd}.st7{fill:#b84338}.st10{fill:#b94439}</style><path class="st0" d="M191.4 16.2c.5.1 1 .2 1.5.4.1.7.2 1.3.2 2 .5-.4.9-.7 1.4-1.1.4 0 .7.1 1.1.1.4.7.9 1.3 1.3 2 3.2 5.4 8 8.5 14 9.9 1.6 1.1-.3 5.6 4 4.1-.4 3.1 1.8 3.1 3.9 3.1 1.4 0 2.7.1 4.1.1 1 1.4 1.9 2.8 2.9 4.2-2.3 3.9-.2 7.5 5.1 8.7l.1.1c.6 1.1 1 2.4 2.4 2.9 3 3.4 7 6 8.6 10.7.8 2.5 4.4 2 5.5 4.6 6.1 14.5 12.9 28.9 9.3 45.3-4.1 18.6-8.4 37.2-12.7 55.8-.5 2.4-.8 5-2.8 6.8-1.6-.3-3.6-2.5-4.3 1.4-.5 2.5-2 4.9-3 7.3-4.1 1.2-7.7 2.8-10.7 6.3-4 4.7-9.2 8.1-14.5 11.3-11 6.6-21.7 13.6-31.5 21.9-15.5 13.1-32.9 16.6-52.3 11.2-13.3-3.8-27-5.5-40.6-7.4-13.2-1.8-24.8-6.5-33.5-17.4-3-3.7-6.9-6.6-10.3-9.9h-.1c.3-2.6-1.7-3.9-3.3-5.4-2.5-3.1-4.9-6.3-6.7-10.1-1.2 2.3 0 3.8.8 5.4.5 1 1.8 2.1.1 3.3-2.8-2.9-5.4-5.9-6.4-10 1.1-.4 2.6.8 3.3-.8.1-.2-.8-.8-1.2-1.2-.4-2.8-2-4.8-4-6.6-.3-.9-.7-1.8-1.9-1.6v-.1c.1-.3.1-.5.2-.8-.8-1.3-.5-3.2-2.2-4-4.2-3.7-7.1-8.2-8.1-13.9l-2.7-8.7c-.8 3-2.9 5.9-.4 8.8-.4.8-1.1.9-1.8.8C-.6 143.6.8 131 3.8 118.3c4.2-17.8 7.3-35.9 10.8-53.9C17 50.7 25.4 40.1 36 31.2 42.1 26 49 22 55.7 17.6c1.1-.7 2.3-1.7 3.7-.9 1.2.7 1.4 1.7.3 2.8-.9.8-.2 1.3.5 1 3.5-1.3 7.4.8 10.9-2.4 5.4-5 11.4-9.3 17.9-12.8 9.5-5 19.1-6.5 30.1-4.6 18.6 3.2 37.1 7.6 56 9.7 5.7.6 10.9 2.9 15.9 5.5 0 .3.2.3.4.3zm-64 209.3c60.4.1 109.8-48.4 109.3-108.5-.5-61.6-49.1-107.4-107.1-108C65.3 8.3 17.5 61.4 20 121.8c2.2 54.3 46.3 102.5 107.4 103.7zm94.5-181.6c-.3.2-.6.3-.7.5 0 .2.1.7.3.7.5.2.9-.1.9-.7.1-.1-.3-.3-.5-.5zm1.3-2.7c-.1-.1-.1-.3-.2-.3h-.4c.1.2.2.3.3.5.1-.1.2-.1.3-.2z"/><path class="st1" d="M8.8 154.6c0 3.6 2.1 6.5 3.5 9.5.7 1.5 1.6 2.8 1.5 4.5-5-2.9-5.9-8.3-7.9-13.1.8 0 1.4-.1 1.8-.8.4 0 .8-.1 1.1-.1z"/><path class="st2" d="M233.8 184.4c1-2.4 2.6-4.8 3-7.3.7-3.8 2.7-1.7 4.3-1.4-.6 2.9-3.5 4.6-4.1 7.6-.4 2.1-2.2.6-3.2 1.1z"/><path class="st1" d="M230.7 49.7c-5.3-1.3-7.4-4.8-5.1-8.7 2.5 2.4 3.5 5.7 5.1 8.7z"/><path class="st3" d="M23.3 180.6c1.4-.5 2.5.5 3.6 1 .4.4 1.3 1.1 1.2 1.2-.8 1.5-2.2.4-3.3.8l-1.5-3z"/><path class="st1" d="M233.2 52.7c-1.4-.4-1.8-1.8-2.4-2.9 1.2.7 4.2-.3 2.4 2.9z"/><path class="st4" d="M194.5 17.5c-.5.4-.9.7-1.4 1.1-.1-.7-.2-1.3-.2-2 .5.3 1.1.6 1.6.9z"/><path class="st3" d="M31.3 193.6c2.9-.6 1.2 1.6 1.6 2.5-1.1-.4-1.4-1.5-1.6-2.5z"/><path class="st4" d="M191.4 16.2c-.2 0-.4-.1-.5-.2.1-.2.2-.4.4-.6 0 .2.1.5.1.8z"/><path class="st3" d="M214.2 28.3c1.4 1.5 2.7 3.1 2.6 5.4h-1.9c-4.3 1.5-2.4-3-4-4.1 0-2.7-2.5-2.8-4-3.9.1-.9.1-1.7-.9-2 0-.6 0-1.1-.1-1.7h1.9c2.1 2 4.2 4.1 6.4 6.3z"/><path class="st2" d="M206.8 25.6c1.5 1.1 4 1.2 4 3.9-6-1.4-10.8-4.5-14-9.9 3.9-.6 5.5 3.9 9.1 4-1.3 1.4.1 1.6.9 2zM8.8 154.6c-.4 0-.7.1-1.1.1-2.6-2.9-.5-5.8.4-8.8l2.7 8.7c-.7.1-1.3 0-2 0z"/><path class="st5" d="M214.8 33.6h1.9c.6 1 1.3 2 1.9 3-2 .1-4.1.1-3.8-3z"/><path class="st6" d="M40.2 200.5c-2-1.3-3.8-2.6-3.3-5.4 1.6 1.5 3.6 2.8 3.3 5.4z"/><path class="st1" d="M221.9 43.9c.2.2.5.4.5.6 0 .6-.3.9-.9.7-.2-.1-.4-.5-.3-.7.1-.2.5-.4.7-.6zM223.2 41.2c-.1.1-.2.2-.3.2-.1-.2-.2-.3-.3-.5.1 0 .3-.1.4 0 .1 0 .2.2.2.3z"/><path class="st6" d="M207.8 21.9h-1.9c.3-.7.5-1.5 1.4-1.5.2 0 .3 1 .5 1.5z"/><path class="st7" d="M225.1 126.2c-1.8 34.8-26.3 71.2-64.9 84.5-43 14.8-89.1-.6-114.6-38.4-.4-.6-1.1-1.1-1-1.7.2-2.1-4.6-3.5-1.4-5.6 2.6-1.6 5.4-1.5 7.7 2.2 12.4 19.7 30.3 32.2 52.6 38.8 6.6 2 14 4.1 20.1 3.9 10.3-.4 21.1-1.3 31.3-4.9 34.7-12.2 55.7-36.3 62.6-72.3.8-4.8 2.3-7.1 7.6-6.5zM148.8 22.7c11.8 2.1 22.2 7.1 32.3 13.5 11.1 7.1 20.2 16.1 27.6 26.8.9 1.3 3.8 3.1 1.4 4.7-2.1 1.4-5 2.4-7.3-1-9.6-14.3-22.7-24.4-37.9-32.1 0-2.1-1.2-1.3-2.3-.9-7.5-2.7-15.1-4.8-23-6.2.1-1 0-2.1-1.2-2.2-1.2-.1-1.4 1-1.6 2-3.7-.2-7.4.2-10.9-1.3-.2-.2-.5-.4-.7-.6-.1.3-.1.6-.2.9-.9.9-2 .7-3.2.5-1.9-1.7-3.6-1.5-5.1.7-41.6 5.2-72.7 36.8-79.2 74.7-.5 2.9-2.1 3.7-4.6 4.2-2.8.6-3.5-.2-3-3 2.5-14.8 7.7-28.5 16.3-40.9 13-18.7 30.3-31.5 52-38.3 1.1-.3 2.3-.4 3.4-.7.3.5.5 1.4.9 1.4 1.1.1 1-.9 1.1-1.6.8-1.1 1.9-1.1 3.1-.7.1.7-.3 1.6.6 2 .1-.7.3-1.5.4-2.2 1.1-1.5 2.6-1.1 4-.9.1.6.1 1.5.9 1.5 1.1 0 1-1 1.1-1.8 8-1.5 15.9-2.1 24-.5.1.7-.2 1.9.8 2 1.1.1 2.1-.7 2.4-1.9 1.9.3 3.9.7 5.8 1 .1.8.3 1.7 1.1 1.9 1.1.4.9-.5 1-1zm-45.7 4.4c-.3-.2-.5-.4-.8-.4-.2 0-.5.2-.7.4.2.1.5.4.7.4.3 0 .5-.2.8-.4zm72 8c-.3-.2-.5-.4-.8-.4-.3 0-.5.2-.8.4.2.1.5.4.7.4.4 0 .6-.2.9-.4z"/><path d="M204.1 98.3c-2.1 0-3.3.2-4.4-.1-.6-.2-1.2-1.1-1.4-1.8-.4-1.1.7-1.6 1.3-1.5 7 1 12.9-4.2 19.8-3.4 1.3.2 2.9-.1 2.9 1.7 0 1.1-1.1 1.5-2.5 1.7-5.5 1-11 2.4-15.7 3.4z" fill="#bb493f"/><path class="st3" d="M42.9 143.8c4.1-2.5 8.5-3.4 13.3-3.2 1.2.1 2.5.2 2.6 1.7.1 1.5-1.2 2.1-2.3 2-4.8-.4-9 1.5-13.5 2.7-.1-1.1-.1-2.2-.1-3.2zM39.9 127.7c3.9-1.9 8-3 12.4-2.9 1.4 0 2.9 0 3 1.8.1 1.8-1.5 2.1-2.8 2-4.1-.5-7.7 1.4-11.6 2.1-.4-1-.7-2-1-3zM213.9 103.6c-3.4 2.6-7.4 2.5-11.4 2.7-1.2.1-2.5-.2-2.6-1.7-.1-1.6 1.1-1.9 2.3-1.8 4.1.2 7.8-1.2 11.6-2.2 0 1 .1 2 .1 3z"/><path class="st5" d="M43.9 135c3-2.6 6.8-2.3 10.4-2.3 1.2 0 2.5.1 2.6 1.6.1 1.7-1.2 2.3-2.7 2.2-3.4-.3-6.9 1-10.3-.3V135z"/><path class="st1" d="M212.8 109.5c3-2.8 6.8-1.8 10.3-2.2 1.2-.1 2.8-.2 2.7 1.9-.1 1.8-1.5 1.6-2.6 1.5-3.4-.4-6.4.8-9.5 1.8-.2-1.1-.6-2-.9-3zM43.9 135v1.2c-1.7 4.1-5.3 3.3-8.6 3.5-1.2.1-2.6-.1-2.8-1.4-.3-1.7 1.1-2.1 2.5-2.4 2.9-.6 6 .7 8.9-.9zM213.9 103.6v-3c2.4-2 5.4-.6 8-1.1 1.1-.2 2.5.2 2.6 1.6.1 1.4-1.2 1.8-2.4 1.9-2.8.2-5.5.4-8.2.6zM39.9 127.7c.3 1 .7 2 1 2.9-2.7.4-5.3.8-8 1-1 .1-2-.3-2.1-1.6-.1-1.2.7-1.8 1.8-1.9 2.4-.1 4.8-.2 7.3-.4z"/><path d="M212.8 109.5c.3 1 .6 2 1 2.9-3.1 1.1-6.4 1.7-9.7 1.5-1.1-.1-2.5-.1-2.3-1.8.1-1.4 1.2-1.5 2.2-1.5 3 0 5.9-.4 8.8-1.1z" fill="#b84136"/><path class="st3" d="M40.8 147.2c-2.2-.4-6.3 1.7-6.4-1.3-.1-3.6 4-1.7 6.4-2.1v3.4z"/><path class="st10" d="M116.8 27.4c1.4-2.2 3.1-2.4 5.1-.7-1.6.9-3.3.8-5.1.7z"/><path class="st1" d="M40.8 147.2v-3.4c.7 0 1.4 0 2-.1 0 1.1 0 2.1.1 3.2-.7.2-1.4.3-2.1.3z"/><path class="st10" d="M141 21c-.3 1.2-1.3 2-2.4 1.9-1-.1-.7-1.2-.8-2 1.1 0 2.2.1 3.2.1zM113.9 21.4c-.1.8 0 1.8-1.1 1.8-.8 0-.8-.8-.9-1.5.6-.5 1.3-.5 2-.3zM136.8 27.2c.2-1 .4-2.1 1.6-2 1.1.1 1.3 1.2 1.2 2.2-.9 0-1.8-.1-2.8-.2zM148.8 22.7c-.1.6.1 1.4-.9 1.2-.8-.2-1-1.1-1.1-1.9.7.2 1.4.5 2 .7zM103.8 23.4c-.1.7 0 1.8-1.1 1.6-.3 0-.6-.9-.9-1.4.7 0 1.3-.1 2-.2zM107.8 22.6c-.1.7-.3 1.5-.4 2.2-.8-.5-.5-1.3-.6-2 .4-.1.7-.2 1-.2zM162.6 33.7c1-.4 2.2-1.2 2.3.9-.8-.3-1.6-.6-2.3-.9zM125 26.3c.1-.3.1-.6.2-.9.2.2.5.4.7.6-.2.2-.5.3-.9.3z"/><path class="st4" d="M206.8 25.6c-.8-.4-2.2-.6-.9-2 1 .3 1 1.1.9 2z"/><path class="st10" d="M103.1 27.1c-.3.1-.5.4-.8.4-.2 0-.5-.2-.7-.4.2-.1.5-.4.7-.4.3 0 .5.3.8.4zM175.1 35.1c-.3.1-.6.4-.8.4-.2 0-.5-.3-.7-.4.3-.1.5-.4.8-.4.2 0 .5.3.7.4z"/><g><path class="st0" d="M129.9 73.3c15.2 19.6 30 38.6 45.2 58.2l-30.2 6.1c-7.5 1.5-15 3.2-22.5 4.6-2.1.4-3 1.3-3.5 3.3-2.2 8.7-4.7 17.3-6.9 26-.6 2.4-1.3 2.7-3.6 1.9-10.5-3.7-21.1-7.2-31.7-10.7-1.6-.5-2.7-1-3.1-3-4.4-22.2-8.9-44.3-13.4-66.5 4.9 0 5.7.6 6.6 4.9 3.8 18.8 7.6 37.7 11.3 56.5.4 2 1 3.1 3.1 3.8 7.9 2.5 15.7 5.1 23.4 7.9 1.9.7 2.6.4 3.1-1.7 1.7-6.7 3.6-13.3 5.5-20.4-8.1 1.6-15.9 3.2-24.3 4.9 1.6-6.6 3.1-12.6 4.6-18.7 6.9-27 13.8-53.9 20.6-80.9.7-2.6 1.4-2.8 3.8-2 19.7 6.8 39.5 13.4 59.2 19.9 2 .7 2.8 1.7 3.2 3.7 4.2 21.2 8.5 42.5 12.8 63.6.5 2.2-.1 3.5-1.7 4.9-16 14-32.1 28.1-48 42.3-2 1.8-3.5 2.2-6 1.2-6.2-2.3-12.6-4.4-18.9-6.4-3.1-.9-1.7-2.7-1.4-4.5.5-2.7 2.1-1.3 3.2-.9 5.8 1.9 11.5 3.8 17.2 5.8 1.4.5 2.3.4 3.5-.7 14.8-13.2 29.7-26.3 44.7-39.4 1.5-1.3 1.8-2.5 1.4-4.4-3.9-19.2-7.8-38.4-11.6-57.6-.4-2.1-1.4-3-3.3-3.7-17-5.6-34-11.4-51-17.1-2-.7-2.9-.5-3.4 1.8-6.8 27.3-13.7 54.7-20.7 82-.8 3.2.1 3.6 2.8 2.6 1-.4 2.1-.5 3.2-.8 3.6-.9 8.4-.3 10.6-2.8 2.2-2.5 2.3-7 3.1-10.6l12-50.1c.4-.7.7-1.6 1.1-3zm2.3 12c-3.9 17.2-7.7 34-11.5 51.1 14.8-3 29.1-5.9 43.8-8.8-10.8-14.1-21.4-28-32.3-42.3z"/></g></svg>